<svg aria-hidden="true" style="position: absolute; width: 0; height: 0; overflow: hidden;" version="1.1" xmlns="http://www.w3.org/2000/svg" xmlns:xlink="http://www.w3.org/1999/xlink">
<defs>
<symbol id="icon-close" viewBox="0 0 60 32">
<path fill="#fff" style="fill: var(--color1, #fff)" opacity="0.54" d="M60 26.69c0.002-0.683-0.139-1.358-0.414-1.975s-0.675-1.161-1.172-1.591l-25.712-22.084c-0.767-0.672-1.729-1.040-2.721-1.040s-1.954 0.368-2.721 1.040l-25.712 22.861c-0.875 0.776-1.425 1.891-1.53 3.1s0.245 2.413 0.973 3.347c0.727 0.934 1.773 1.521 2.906 1.632s2.261-0.262 3.137-1.038l22.969-20.438 22.969 19.752c0.629 0.559 1.395 0.914 2.208 1.023s1.637-0.032 2.376-0.407c0.739-0.375 1.362-0.968 1.796-1.71s0.658-1.599 0.649-2.473z"></path>
</symbol>
<symbol id="icon-open" viewBox="0 0 60 32">
<path d="M60 5.31c0.002 0.683-0.139 1.358-0.414 1.975s-0.675 1.161-1.172 1.591l-25.712 22.084c-0.767 0.672-1.729 1.040-2.721 1.040s-1.954-0.368-2.721-1.040l-25.712-22.861c-0.875-0.776-1.425-1.891-1.53-3.1s0.245-2.413 0.973-3.347c0.727-0.934 1.773-1.521 2.906-1.632s2.261 0.262 3.137 1.038l22.969 20.438 22.969-19.752c0.629-0.559 1.395-0.914 2.208-1.023s1.637 0.032 2.376 0.407 1.362 0.968 1.796 1.71c0.433 0.741 0.658 1.599 0.649 2.473z"></path>
</symbol>
<symbol id="icon-snake" viewBox="0 0 164 32">
<path fill="none" stroke="#ccc" style="stroke: var(--color1, #ccc)" stroke-linejoin="miter" stroke-linecap="round" stroke-miterlimit="4" stroke-width="4.6141" d="M3.648 4.731c7.632 11.595 28.216 29.207 51.111 23.628 18.77-4.574 31.585-20.115 46.919-23.628 22.895-5.244 48.047 4.922 58.85 10.993"></path>
</symbol>
<symbol id="icon-youtube" viewBox="0 0 44 32">
<path fill="#fff" style="fill: var(--color2, #fff)" d="M38.86 1.052c1.771 0.486 3.166 1.918 3.64 3.737 0.86 3.296 0.86 10.173 0.86 10.173s0 6.877-0.86 10.173c-0.473 1.819-1.868 3.251-3.64 3.737-3.21 0.883-16.082 0.883-16.082 0.883s-12.872 0-16.082-0.883c-1.771-0.486-3.166-1.918-3.639-3.737-0.86-3.296-0.86-10.173-0.86-10.173s0-6.877 0.86-10.173c0.473-1.819 1.868-3.251 3.639-3.737 3.21-0.883 16.082-0.883 16.082-0.883s12.872 0 16.082 0.883zM18.919 9.173v12.864l10.291-6.432-10.291-6.432z"></path>
</symbol>
<symbol id="icon-twitter" viewBox="0 0 37 32">
<path fill="#fff" style="fill: var(--color2, #fff)" d="M19.238 9.169l0.074 1.224-1.237-0.15c-4.503-0.575-8.438-2.523-11.778-5.795l-1.633-1.624-0.421 1.199c-0.891 2.673-0.322 5.496 1.534 7.394 0.99 1.049 0.767 1.199-0.94 0.575-0.594-0.2-1.113-0.35-1.163-0.275-0.173 0.175 0.421 2.448 0.891 3.347 0.643 1.249 1.955 2.473 3.39 3.197l1.212 0.575-1.435 0.025c-1.386 0-1.435 0.025-1.287 0.55 0.495 1.624 2.45 3.347 4.627 4.097l1.534 0.525-1.336 0.799c-1.98 1.149-4.305 1.799-6.631 1.849-1.114 0.025-2.029 0.125-2.029 0.2 0 0.25 3.019 1.649 4.776 2.198 5.27 1.624 11.531 0.924 16.232-1.849 3.34-1.974 6.681-5.895 8.24-9.692 0.841-2.023 1.682-5.721 1.682-7.494 0-1.149 0.074-1.299 1.46-2.673 0.817-0.799 1.583-1.674 1.732-1.923 0.247-0.475 0.223-0.475-1.039-0.050-2.103 0.749-2.4 0.649-1.361-0.475 0.767-0.799 1.682-2.248 1.682-2.673 0-0.075-0.371 0.050-0.792 0.275-0.445 0.25-1.435 0.625-2.177 0.849l-1.336 0.425-1.213-0.824c-0.668-0.45-1.608-0.949-2.103-1.099-1.262-0.35-3.192-0.3-4.33 0.1-3.093 1.124-5.048 4.022-4.825 7.194z"></path>
</symbol>
<symbol id="icon-social" viewBox="0 0 32 32">
<path fill="#fff" style="fill: var(--color2, #fff)" d="M30.866 16.879c0 1.021-0.104 2.040-0.308 3.034-0.199 0.97-0.494 1.922-0.88 2.833-0.377 0.894-0.845 1.756-1.392 2.56-0.539 0.799-1.159 1.548-1.841 2.231-0.683 0.68-1.435 1.299-2.233 1.84-0.806 0.543-1.669 1.010-2.564 1.389-0.912 0.384-1.866 0.678-2.835 0.877-0.995 0.205-2.018 0.309-3.040 0.309s-2.046-0.105-3.039-0.309c-0.971-0.199-1.925-0.493-2.836-0.877-0.895-0.379-1.759-0.846-2.565-1.389-0.798-0.541-1.55-1.16-2.232-1.84-0.682-0.683-1.303-1.432-1.843-2.231-0.544-0.804-1.013-1.666-1.391-2.56-0.386-0.91-0.682-1.863-0.881-2.833-0.202-0.994-0.305-2.013-0.305-3.034s0.103-2.043 0.305-3.034c0.2-0.97 0.495-1.924 0.881-2.833 0.379-0.895 0.848-1.757 1.391-2.561 0.539-0.799 1.16-1.547 1.843-2.231 0.682-0.68 1.434-1.297 2.232-1.838 0.806-0.545 1.67-1.013 2.565-1.392 0.911-0.385 1.865-0.68 2.836-0.877 0.994-0.203 2.016-0.306 3.039-0.306s2.045 0.103 3.040 0.306c0.969 0.197 1.924 0.492 2.835 0.877 0.895 0.38 1.758 0.847 2.564 1.392 0.798 0.54 1.55 1.158 2.233 1.838 0.682 0.684 1.302 1.431 1.841 2.231 0.547 0.804 1.015 1.666 1.392 2.561 0.386 0.909 0.681 1.863 0.88 2.833 0.204 0.991 0.308 2.013 0.308 3.034zM10.272 5.237c-3.594 1.695-6.277 5.002-7.114 8.988 0.34 0.003 5.711 0.071 11.9-1.571-2.231-3.958-4.614-7.188-4.786-7.417zM16.126 14.636c-6.637 1.984-13.005 1.841-13.234 1.833-0.004 0.138-0.010 0.272-0.010 0.411 0 3.307 1.249 6.321 3.303 8.6-0.004-0.007 3.523-6.255 10.479-8.502 0.168-0.056 0.339-0.106 0.509-0.155-0.323-0.731-0.677-1.464-1.046-2.187zM24.284 7.219c-2.269-1.998-5.249-3.21-8.512-3.21-1.047 0-2.064 0.127-3.037 0.361 0.193 0.259 2.614 3.466 4.819 7.508 4.864-1.821 6.699-4.611 6.731-4.659zM18.051 18.956c-0.029 0.009-0.057 0.018-0.085 0.028-7.605 2.648-10.089 7.983-10.116 8.041 2.188 1.699 4.933 2.724 7.922 2.724 1.785 0 3.485-0.363 5.032-1.020-0.191-1.125-0.94-5.066-2.753-9.773zM22.974 27.553c2.894-1.95 4.95-5.047 5.523-8.634-0.265-0.085-3.871-1.225-8.032-0.559 1.691 4.64 2.378 8.418 2.509 9.194zM18.545 13.795c0.299 0.614 0.589 1.239 0.856 1.866 0.095 0.225 0.188 0.446 0.279 0.667 4.428-0.556 8.79 0.38 8.977 0.418-0.029-3.051-1.123-5.851-2.931-8.044-0.024 0.035-2.092 3.017-7.181 5.093z"></path>
</symbol>
<symbol id="icon-insta" viewBox="0 0 32 32">
<path fill="#fff" style="fill: var(--color2, #fff)" d="M15.308 1.807c-4.099 0-4.614 0.018-6.223 0.091-1.607 0.074-2.704 0.328-3.663 0.701-0.993 0.385-1.835 0.901-2.674 1.74s-1.355 1.681-1.742 2.673c-0.374 0.96-0.629 2.057-0.701 3.663-0.072 1.61-0.091 2.125-0.091 6.224s0.018 4.612 0.091 6.222c0.074 1.607 0.328 2.704 0.701 3.663 0.386 0.993 0.901 1.835 1.741 2.674s1.681 1.357 2.673 1.742c0.96 0.373 2.057 0.628 3.664 0.701 1.61 0.073 2.124 0.091 6.223 0.091s4.612-0.018 6.222-0.091c1.607-0.074 2.705-0.328 3.665-0.701 0.992-0.386 1.833-0.902 2.672-1.742 0.84-0.839 1.355-1.681 1.742-2.673 0.371-0.96 0.626-2.057 0.701-3.663 0.072-1.61 0.091-2.123 0.091-6.222s-0.019-4.614-0.091-6.223c-0.076-1.607-0.33-2.704-0.701-3.663-0.387-0.993-0.902-1.835-1.742-2.674s-1.679-1.355-2.673-1.74c-0.962-0.373-2.060-0.628-3.667-0.701-1.61-0.073-2.122-0.091-6.223-0.091h0.005zM13.954 4.527c0.402-0.001 0.85 0 1.354 0 4.030 0 4.508 0.014 6.099 0.087 1.472 0.067 2.27 0.313 2.802 0.52 0.704 0.274 1.207 0.601 1.735 1.129s0.855 1.031 1.129 1.736c0.207 0.531 0.453 1.33 0.52 2.802 0.072 1.591 0.088 2.069 0.088 6.097s-0.016 4.506-0.088 6.097c-0.067 1.472-0.313 2.27-0.52 2.802-0.273 0.704-0.601 1.206-1.129 1.734s-1.030 0.855-1.735 1.129c-0.531 0.208-1.331 0.453-2.802 0.52-1.591 0.072-2.069 0.088-6.099 0.088s-4.508-0.016-6.099-0.088c-1.472-0.068-2.27-0.314-2.803-0.52-0.704-0.274-1.207-0.601-1.736-1.129s-0.855-1.030-1.13-1.735c-0.207-0.531-0.453-1.33-0.52-2.802-0.072-1.591-0.087-2.069-0.087-6.1s0.014-4.506 0.087-6.097c0.067-1.472 0.313-2.27 0.52-2.802 0.274-0.704 0.601-1.207 1.13-1.736s1.031-0.855 1.736-1.13c0.532-0.208 1.331-0.453 2.803-0.52 1.392-0.063 1.932-0.082 4.745-0.085v0.004zM23.364 7.033c-1 0-1.811 0.81-1.811 1.811s0.811 1.811 1.811 1.811c1 0 1.811-0.811 1.811-1.811s-0.811-1.811-1.811-1.811zM15.308 9.149c-4.281 0-7.751 3.471-7.751 7.751s3.471 7.75 7.751 7.75c4.281 0 7.75-3.469 7.75-7.75s-3.469-7.751-7.75-7.751zM15.308 11.869c2.778 0 5.031 2.252 5.031 5.031s-2.253 5.031-5.031 5.031c-2.779 0-5.031-2.253-5.031-5.031s2.252-5.031 5.031-5.031z"></path>
</symbol>
<symbol id="icon-watch" viewBox="0 0 22 32">
<path fill="#fff" style="fill: var(--color2, #fff)" d="M1.357 1.454c-0.196-0.144-0.455-0.166-0.673-0.055s-0.353 0.336-0.353 0.581v28.682c0 0.246 0.137 0.471 0.353 0.582 0.091 0.047 0.192 0.070 0.291 0.070 0.135 0 0.269-0.042 0.381-0.126l19.326-14.341c0.166-0.123 0.263-0.319 0.263-0.526s-0.097-0.403-0.263-0.526l-19.326-14.341z"></path>
</symbol>
<symbol id="icon-eth" viewBox="0 0 20 32">
<path fill="#fff" style="fill: var(--color2, #fff)" d="M10.102 0.496l-9.489 15.746 9.489-4.313v-11.433z"></path>
<path fill="#fff" style="fill: var(--color2, #fff)" d="M10.102 11.929l-9.489 4.313 9.489 5.61v-9.923z"></path>
<path fill="#fff" style="fill: var(--color2, #fff)" d="M19.592 16.242l-9.49-15.746v11.433l9.49 4.313z"></path>
<path fill="#fff" style="fill: var(--color2, #fff)" d="M10.102 21.852l9.49-5.61-9.49-4.313v9.923z"></path>
<path fill="#fff" style="fill: var(--color2, #fff)" d="M0.614 18.042l9.489 13.373v-7.766l-9.489-5.607z"></path>
<path fill="#fff" style="fill: var(--color2, #fff)" d="M10.102 23.649v7.766l9.496-13.373-9.496 5.607z"></path>
</symbol>
<symbol id="icon-top-card-three" viewBox="0 0 33 32">
<path d="M32.332 15.889c0 8.706-7.058 15.764-15.764 15.764s-15.764-7.058-15.764-15.764c0-8.706 7.058-15.764 15.764-15.764s15.764 7.058 15.764 15.764z"></path>
</symbol>
<symbol id="icon-top-card-two" viewBox="0 0 33 32">
<path d="M32.217 15.889c0 8.706-7.058 15.764-15.764 15.764s-15.764-7.058-15.764-15.764c0-8.706 7.058-15.764 15.764-15.764s15.764 7.058 15.764 15.764z"></path>
</symbol>
<symbol id="icon-top-card-one" viewBox="0 0 33 32">
<path d="M32.102 15.889c0 8.706-7.058 15.764-15.764 15.764s-15.764-7.058-15.764-15.764c0-8.706 7.058-15.764 15.764-15.764s15.764 7.058 15.764 15.764z"></path>
</symbol>
<symbol id="icon-offiicial" viewBox="0 0 30 32">
<path d="M0.429 0.405h28.16v30.72h-28.16v-30.72z"></path>
</symbol>
<symbol id="icon-bitmex-logo" viewBox="0 0 197 32">
<path fill="#fff" style="fill: var(--color2, #fff)" opacity="0.5" d="M17.33 0.697h18.387c-0.011 0.239-0.095 0.469-0.241 0.66-0.622 1.048-1.183 2.138-1.794 3.186-0.865 1.504-1.674 3.036-2.554 4.534-0.557 1.078-1.186 2.123-1.78 3.183-3.573 0-7.146 0-10.719 0-0.187 0-0.372 0.009-0.559 0.020-0.156 0.403-0.414 0.756-0.622 1.135-0.272 0.434-0.493 0.896-0.762 1.33-0.285 0.583-0.678 1.106-0.965 1.688-0.591 0.985-1.144 1.985-1.723 2.981-0.604 1.018-1.194 2.050-1.771 3.097-0.244 0.371-0.469 0.754-0.674 1.147-1.209 2.065-2.379 4.148-3.59 6.211-0.103 0.222-0.238 0.428-0.401 0.611-2.070-0.014-4.139 0-6.209 0-0.255 0.005-0.508 0.040-0.755 0.104 0-0.562 0.383-1.012 0.641-1.484 0.311-0.634 0.727-1.222 1.039-1.857 2.481-4.355 4.935-8.726 7.407-13.085 0.56-0.947 1.041-1.914 1.604-2.842 0.703-1.222 1.359-2.471 2.091-3.679 0.233-0.505 0.548-0.968 0.804-1.461 0.912-1.593 1.807-3.195 2.715-4.788 0.108-0.249 0.252-0.481 0.428-0.689z"></path>
<path fill="#fff" style="fill: var(--color2, #fff)" opacity="0.5" d="M38.637 7.109c1.225-2.1 2.407-4.223 3.649-6.313h6.642c0.097 0.005 0.193 0.020 0.286 0.044-0.221 0.328-0.406 0.677-0.601 1.019-1.602 2.821-3.199 5.644-4.791 8.468-0.669 1.15-1.292 2.326-1.97 3.47l-0.067 0.023-0.012 0.143c-3.123 5.498-6.235 11-9.337 16.506-6.097 0.006-12.195 0.006-18.293 0 0.347-0.712 0.758-1.391 1.144-2.083 1.737-3.134 3.518-6.24 5.23-9.374 3.746-0.006 7.492-0.006 11.238 0 2.314-3.955 4.578-7.941 6.875-11.903h0.006z"></path>
<path fill="#fff" style="fill: var(--color2, #fff)" opacity="0.5" d="M107.18 0.715v30.115h5.318v-21.177l9.699 13.947 9.622-14.279v21.508h5.473v-30.115h-5.887l-9.169 13.902-9.271-13.902h-5.785z"></path>
<path fill="#fff" style="fill: var(--color2, #fff)" opacity="0.5" d="M82.308 8.483h3.475v22.602h-3.475v-22.602z"></path>
<path fill="#fff" style="fill: var(--color2, #fff)" opacity="0.5" d="M82.010 0.109h4.073v3.792h-4.073v-3.792z"></path>
<path fill="#fff" style="fill: var(--color2, #fff)" opacity="0.5" d="M92.423 2.006h3.63v6.477h7.158v3.157h-7.158v13.427c-0.006 0.517 0.116 1.029 0.356 1.489 0.615 1.145 2.284 2.505 6.802 0.916v2.926c0 0-4.124 2.291-7.858 0.205 0 0-1.855-0.773-2.635-3.381-0.203-0.699-0.302-1.422-0.296-2.149v-13.483l-3.061 0.050v-3.157h3.086l-0.025-6.477z"></path>
<path fill="#fff" style="fill: var(--color2, #fff)" opacity="0.5" d="M142.894 0.715v30.319h23.082v-4.887h-17.453v-8.044h15.379v-4.811h-15.406v-7.66h17.3v-4.917h-22.902z"></path>
<path fill="#fff" style="fill: var(--color2, #fff)" opacity="0.5" d="M168.142 0.715h6.575l7.548 10.644 7.488-10.644h6.574l-10.737 14.786 11.407 15.507h-6.925l-7.781-11.325-8.157 11.351h-6.575l11.243-15.398-10.66-14.92z"></path>
<path fill="#fff" style="fill: var(--color2, #fff)" opacity="0.5" d="M71.674 15.304c0 0 5.084-1.883 4.773-7.304 0 0-0.042-5.214-6.024-6.823-0.995-0.262-2.020-0.391-3.050-0.385h-14.346l0.039 30.115h15.445c0 0 9.038-0.191 9.675-8.094 0 0 0.647-5.524-6.511-7.509zM56.735 3.901h9.156c7.183-0.024 6.976 4.939 6.976 4.939 0.107 5.663-6.484 5.548-6.484 5.548h-9.648v-10.487zM67.939 27.724h-11.204v-10.485h10.713c7.183-0.026 6.976 4.937 6.976 4.937 0.107 5.663-6.484 5.548-6.484 5.548z"></path>
</symbol>
<symbol id="icon-blockchain-logo" viewBox="0 0 193 32">
<path fill="#fff" style="fill: var(--color2, #fff)" opacity="0.5" d="M47.295 21.56v-5.357c0-2.772-2.239-5.014-5.039-5.014h-0.218c-1.089 0-2.177 0.374-2.706 1.028v-6.354c0-0.779-0.591-1.183-1.182-1.183s-1.182 0.405-1.182 1.183v19.59c0 0.748 0.591 1.121 1.182 1.121 0.529 0 1.058-0.312 1.151-0.934 0.435 0.436 1.337 0.934 2.675 0.934h0.28c2.768 0 5.039-2.242 5.039-5.014zM44.931 21.56c0 1.464-1.182 2.648-2.675 2.648h-0.28c-1.4 0-2.644-0.935-2.644-2.461v-5.793c0-1.433 1.244-2.398 2.644-2.398h0.28c1.493 0 2.675 1.184 2.675 2.647v5.357zM57.217 25.391c0-0.592-0.373-1.183-1.182-1.183-0.964-0.032-1.711-0.779-1.711-1.745v-16.6c0-0.779-0.591-1.183-1.182-1.183s-1.182 0.405-1.182 1.183v16.6c0 2.273 1.804 4.111 4.075 4.111 0.808 0 1.182-0.592 1.182-1.184zM70.777 21.56v-5.357c0-2.772-2.239-5.014-5.007-5.014h-0.311c-2.768 0-5.008 2.242-5.008 5.014v5.357c0 2.772 2.239 5.014 5.008 5.014h0.311c2.768 0 5.007-2.242 5.007-5.014zM68.413 21.56c0 1.464-1.181 2.648-2.643 2.648h-0.28c-1.493 0-2.675-1.184-2.675-2.648v-5.357c0-1.464 1.182-2.647 2.644-2.647h0.311c1.462 0 2.643 1.184 2.643 2.647v5.357zM85.116 21.56c0-0.81-0.591-1.214-1.182-1.214-0.559 0-1.151 0.405-1.181 1.214-0.062 1.464-1.182 2.648-2.644 2.648h-0.28c-1.493 0-2.675-1.184-2.675-2.648v-5.357c0-1.464 1.182-2.647 2.644-2.647h0.311c1.462 0 2.581 1.090 2.643 2.678 0.031 0.779 0.622 1.153 1.182 1.153 0.591 0 1.182-0.405 1.182-1.184 0-2.772-2.271-5.014-5.008-5.014h-0.311c-2.737 0-5.008 2.211-5.008 5.014v5.357c0 2.772 2.239 5.014 5.008 5.014h0.311c2.769 0 5.008-2.242 5.008-5.014zM100.014 25.391c0-0.187-0.031-0.404-0.156-0.592l-4.261-7.475 3.857-4.111c0.249-0.249 0.342-0.529 0.342-0.81 0-0.623-0.529-1.215-1.213-1.215-0.28 0-0.591 0.124-0.84 0.405l-5.909 6.291v-12.022c0-0.779-0.591-1.183-1.182-1.183s-1.182 0.405-1.182 1.183v19.528c0 0.779 0.591 1.184 1.182 1.184s1.182-0.405 1.182-1.184v-4.018l2.084-2.242 3.888 6.821c0.249 0.437 0.622 0.623 0.996 0.623 0.715 0 1.213-0.561 1.213-1.184zM113.449 21.56c0-0.81-0.591-1.214-1.181-1.214-0.56 0-1.151 0.405-1.182 1.214-0.062 1.464-1.182 2.648-2.643 2.648h-0.28c-1.493 0-2.675-1.184-2.675-2.648v-5.357c0-1.464 1.182-2.647 2.644-2.647h0.311c1.461 0 2.581 1.090 2.643 2.678 0.031 0.779 0.622 1.153 1.182 1.153 0.591 0 1.181-0.405 1.181-1.184 0-2.772-2.27-5.014-5.007-5.014h-0.311c-2.737 0-5.008 2.211-5.008 5.014v5.357c0 2.772 2.24 5.014 5.008 5.014h0.311c2.768 0 5.007-2.242 5.007-5.014zM128.131 25.391v-9.188c0-2.772-2.239-5.014-5.008-5.014h-0.248c-1.089 0-2.177 0.374-2.707 0.934v-6.26c0-0.779-0.59-1.183-1.181-1.183s-1.181 0.405-1.181 1.183v19.528c0 0.779 0.591 1.184 1.181 1.184s1.181-0.405 1.181-1.184v-9.343c0-1.62 1.401-2.492 2.832-2.492 1.368 0 2.768 0.841 2.768 2.647v9.188c0 0.779 0.591 1.184 1.182 1.184s1.182-0.405 1.182-1.184zM143.682 25.36c0-0.499-0.311-0.997-0.996-1.122-0.559-0.093-0.808-0.468-0.808-1.028v-7.226c0-2.678-2.115-4.796-4.883-4.796h-0.218c-1.648 0-3.639 0.654-4.634 2.897-0.094 0.187-0.125 0.373-0.125 0.561 0 0.654 0.592 1.090 1.182 1.090 0.405 0 0.809-0.187 1.058-0.623 0.591-1.028 1.244-1.557 2.519-1.557h0.218c1.369 0 2.519 0.685 2.519 2.522 0 0.156 0 0.405-0.093 0.53-0.746 1.059-7.651 0.187-7.869 5.108v0.374c0 2.897 2.488 4.485 5.008 4.485h0.28c1.275 0 2.457-0.467 3.359-1.245 0.404 0.592 1.057 1.059 2.114 1.214 0.063 0.031 0.156 0.031 0.218 0.031 0.745 0 1.15-0.592 1.15-1.214zM139.514 21.56c0 1.464-1.213 2.648-2.674 2.648h-0.28c-1.586 0-2.643-0.841-2.643-2.181v-0.249c0.093-2.18 3.297-2.055 5.598-2.678v2.46zM149.778 25.391v-13.018c0-0.779-0.591-1.184-1.181-1.184s-1.182 0.405-1.182 1.184v13.018c0 0.779 0.592 1.184 1.182 1.184s1.181-0.405 1.181-1.184zM165.080 25.391v-9.188c0-3.426-2.333-5.014-4.976-5.014h-0.28c-1.089 0-2.115 0.374-2.675 0.934-0.124-0.623-0.654-0.934-1.182-0.934-0.622 0-1.213 0.436-1.213 1.184v13.018c0 0.779 0.591 1.184 1.182 1.184s1.181-0.405 1.181-1.184v-9.188c0-1.464 1.214-2.647 2.675-2.647h0.28c1.493 0 2.674 1.184 2.674 2.647v9.188c0 0.779 0.592 1.184 1.182 1.184s1.151-0.405 1.151-1.184zM177.286 25.391v-13.018c0-0.779-0.591-1.184-1.182-1.184s-1.181 0.405-1.181 1.184v13.018c0 0.779 0.591 1.184 1.181 1.184s1.182-0.405 1.182-1.184zM192.245 21.56v-5.357c0-2.772-2.239-5.014-5.007-5.014h-0.311c-2.768 0-5.007 2.242-5.007 5.014v5.357c0 2.772 2.239 5.014 5.007 5.014h0.311c2.768 0 5.007-2.242 5.007-5.014zM189.882 21.56c0 1.464-1.182 2.648-2.644 2.648h-0.28c-1.494 0-2.675-1.184-2.675-2.648v-5.357c0-1.464 1.181-2.647 2.643-2.647h0.311c1.462 0 2.644 1.184 2.644 2.647v5.357z"></path>
<path fill="#fff" style="fill: var(--color2, #fff)" opacity="0.5" d="M13.547 14.867c-0.72 0-1.306 0.587-1.306 1.308s0.586 1.307 1.306 1.307c0.72 0 1.306-0.586 1.306-1.307s-0.586-1.308-1.306-1.308z"></path>
<path fill="#fff" style="fill: var(--color2, #fff)" opacity="0.5" d="M19.585 11.239c-0.72 0-1.305 0.587-1.305 1.308s0.585 1.307 1.305 1.307c0.72 0 1.306-0.586 1.306-1.307s-0.586-1.308-1.306-1.308z"></path>
<path fill="#fff" style="fill: var(--color2, #fff)" opacity="0.5" d="M25.624 7.611c-0.72 0-1.306 0.586-1.306 1.307s0.586 1.309 1.306 1.309c0.721 0 1.306-0.587 1.306-1.309s-0.585-1.307-1.306-1.307z"></path>
<path fill="#fff" style="fill: var(--color2, #fff)" opacity="0.5" d="M7.508 3.983c-0.72 0-1.306 0.587-1.306 1.308s0.586 1.307 1.306 1.307c0.72 0 1.306-0.587 1.306-1.307s-0.586-1.308-1.306-1.308z"></path>
<path fill="#fff" style="fill: var(--color2, #fff)" opacity="0.5" d="M13.547 0.354c-0.72 0-1.306 0.587-1.306 1.308s0.586 1.308 1.306 1.308c0.72 0 1.306-0.587 1.306-1.308s-0.586-1.308-1.306-1.308z"></path>
<path fill="#fff" style="fill: var(--color2, #fff)" opacity="0.5" d="M13.547 7.611c-0.72 0-1.306 0.586-1.306 1.307s0.586 1.309 1.306 1.309 1.306-0.587 1.306-1.309c0-0.721-0.586-1.307-1.306-1.307z"></path>
<path fill="#fff" style="fill: var(--color2, #fff)" opacity="0.5" d="M19.585 3.983c-0.72 0-1.305 0.587-1.305 1.308s0.585 1.307 1.305 1.307c0.72 0 1.306-0.587 1.306-1.307s-0.586-1.308-1.306-1.308z"></path>
<path fill="#fff" style="fill: var(--color2, #fff)" opacity="0.5" d="M19.585 18.495c-0.72 0-1.305 0.586-1.305 1.307s0.585 1.308 1.305 1.308c0.72 0 1.306-0.586 1.306-1.308s-0.586-1.307-1.306-1.307z"></path>
<path fill="#fff" style="fill: var(--color2, #fff)" opacity="0.5" d="M25.624 14.867c-0.72 0-1.306 0.587-1.306 1.308s0.586 1.307 1.306 1.307c0.721 0 1.306-0.586 1.306-1.307s-0.585-1.308-1.306-1.308z"></path>
<path fill="#fff" style="fill: var(--color2, #fff)" opacity="0.5" d="M19.585 25.751c-0.72 0-1.305 0.586-1.305 1.308s0.585 1.307 1.305 1.307c0.72 0 1.306-0.586 1.306-1.307s-0.586-1.308-1.306-1.308z"></path>
<path fill="#fff" style="fill: var(--color2, #fff)" opacity="0.5" d="M25.624 22.123c-0.72 0-1.306 0.586-1.306 1.308s0.586 1.307 1.306 1.307c0.721 0 1.306-0.586 1.306-1.307s-0.585-1.308-1.306-1.308z"></path>
<path fill="#fff" style="fill: var(--color2, #fff)" opacity="0.5" d="M13.547 29.379c-0.72 0-1.306 0.587-1.306 1.308s0.586 1.307 1.306 1.307 1.306-0.587 1.306-1.307c0-0.721-0.586-1.308-1.306-1.308z"></path>
<path fill="#fff" style="fill: var(--color2, #fff)" opacity="0.5" d="M13.547 22.123c-0.72 0-1.306 0.586-1.306 1.308s0.586 1.307 1.306 1.307 1.306-0.586 1.306-1.307c0-0.721-0.586-1.308-1.306-1.308z"></path>
<path fill="#fff" style="fill: var(--color2, #fff)" opacity="0.5" d="M7.508 11.239c-0.72 0-1.306 0.587-1.306 1.308s0.586 1.307 1.306 1.307c0.72 0 1.306-0.586 1.306-1.307s-0.586-1.308-1.306-1.308z"></path>
<path fill="#fff" style="fill: var(--color2, #fff)" opacity="0.5" d="M7.508 25.751c-0.72 0-1.306 0.586-1.306 1.308s0.586 1.307 1.306 1.307c0.72 0 1.306-0.586 1.306-1.307s-0.586-1.308-1.306-1.308z"></path>
<path fill="#fff" style="fill: var(--color2, #fff)" opacity="0.5" d="M7.508 18.495c-0.72 0-1.306 0.586-1.306 1.307s0.586 1.308 1.306 1.308c0.72 0 1.306-0.586 1.306-1.308s-0.586-1.307-1.306-1.307z"></path>
<path fill="#fff" style="fill: var(--color2, #fff)" opacity="0.5" d="M1.47 7.611c-0.72 0-1.306 0.586-1.306 1.307s0.586 1.309 1.306 1.309 1.306-0.587 1.306-1.309c0-0.721-0.586-1.307-1.306-1.307z"></path>
<path fill="#fff" style="fill: var(--color2, #fff)" opacity="0.5" d="M1.47 22.123c-0.72 0-1.306 0.586-1.306 1.308s0.586 1.307 1.306 1.307 1.306-0.586 1.306-1.307c0-0.721-0.586-1.308-1.306-1.308z"></path>
<path fill="#fff" style="fill: var(--color2, #fff)" opacity="0.5" d="M1.47 14.867c-0.72 0-1.306 0.587-1.306 1.308s0.586 1.307 1.306 1.307c0.72 0 1.306-0.586 1.306-1.307s-0.586-1.308-1.306-1.308z"></path>
<path fill="#fff" style="fill: var(--color2, #fff)" opacity="0.5" d="M148.577 4.614c-0.655 0-1.189 0.533-1.189 1.19s0.534 1.19 1.189 1.19c0.655 0 1.188-0.534 1.188-1.19s-0.533-1.19-1.188-1.19z"></path>
<path fill="#fff" style="fill: var(--color2, #fff)" opacity="0.5" d="M176.094 4.614c-0.655 0-1.188 0.533-1.188 1.19s0.533 1.19 1.188 1.19c0.656 0 1.188-0.534 1.188-1.19s-0.533-1.19-1.188-1.19z"></path>
<path fill="#fff" style="fill: var(--color2, #fff)" opacity="0.5" d="M169.86 24.293c-0.651 0-1.182 0.531-1.182 1.183s0.531 1.184 1.182 1.184c0.652 0 1.182-0.531 1.182-1.184s-0.53-1.183-1.182-1.183z"></path>
</symbol>
<symbol id="icon-ethereum-logo" viewBox="0 0 101 32">
<path fill="#fff" style="fill: var(--color2, #fff)" opacity="0.5" d="M33.89 15.439c-0.123-1.409-1.208-2.695-2.702-2.695s-2.559 1.286-2.702 2.695h5.404zM34.503 15.719c-0.001 0.078-0.032 0.152-0.088 0.207s-0.13 0.085-0.209 0.085h-5.721c0.143 1.409 1.207 2.695 2.702 2.695 1.023 0 1.781-0.388 2.354-1.205 0.083-0.111 0.205-0.184 0.364-0.117 0.036 0.016 0.069 0.040 0.096 0.070s0.046 0.065 0.058 0.103c0.012 0.038 0.016 0.078 0.011 0.118s-0.018 0.078-0.039 0.112c-0.572 1.001-1.719 1.491-2.845 1.491-1.924 0-3.296-1.714-3.296-3.552s1.372-3.553 3.296-3.553c1.922 0 3.313 1.711 3.317 3.546h-0.001zM41.443 12.315c0.164 0 0.287 0.143 0.287 0.286 0 0.164-0.123 0.286-0.287 0.286h-1.535v6.003c-0.002 0.075-0.032 0.147-0.086 0.2s-0.125 0.084-0.201 0.085c-0.076-0.001-0.148-0.032-0.201-0.085s-0.084-0.125-0.086-0.2v-6.003h-1.473c-0.038 0.001-0.076-0.006-0.111-0.020s-0.067-0.035-0.094-0.062c-0.027-0.027-0.048-0.059-0.062-0.094s-0.021-0.073-0.020-0.11c0-0.143 0.123-0.286 0.287-0.286h1.473v-2.197c0-0.138 0.095-0.267 0.231-0.289 0.19-0.031 0.342 0.1 0.342 0.281v2.205h1.535zM50.797 15.214v3.635c0 0.163-0.143 0.285-0.287 0.285-0.038 0.001-0.075-0.006-0.111-0.020s-0.067-0.035-0.094-0.062c-0.027-0.027-0.048-0.058-0.062-0.094s-0.021-0.073-0.020-0.11v-3.634c0-1.225-0.696-2.45-2.068-2.45-1.76 0-2.518 1.531-2.415 3.104 0 0.041 0.020 0.224 0.020 0.245v2.728c0 0.138-0.095 0.267-0.231 0.289-0.191 0.031-0.342-0.101-0.342-0.282v-11.944c0-0.143 0.123-0.285 0.286-0.285s0.287 0.143 0.287 0.285v6.758c0.492-0.878 1.371-1.47 2.395-1.47 1.678 0 2.641 1.47 2.641 3.022zM60.439 15.439c-0.123-1.409-1.208-2.695-2.702-2.695s-2.559 1.286-2.702 2.695h5.404zM61.052 15.719c-0.001 0.078-0.032 0.152-0.088 0.207s-0.13 0.085-0.209 0.085h-5.721c0.143 1.409 1.207 2.695 2.702 2.695 1.024 0 1.781-0.388 2.355-1.205 0.083-0.111 0.205-0.184 0.364-0.117 0.036 0.016 0.069 0.040 0.095 0.070s0.047 0.065 0.059 0.103c0.012 0.038 0.015 0.078 0.011 0.118s-0.018 0.078-0.039 0.112c-0.573 1.001-1.719 1.491-2.845 1.491-1.924 0-3.295-1.714-3.295-3.552s1.371-3.553 3.295-3.553c1.922 0 3.313 1.711 3.316 3.546h-0.001zM68.073 12.581c0 0.184-0.102 0.286-0.266 0.306-1.678 0.245-2.436 1.613-2.436 3.205v2.729c0 0.138-0.095 0.266-0.232 0.289-0.19 0.031-0.342-0.101-0.342-0.282v-6.22c0-0.138 0.094-0.266 0.231-0.289 0.191-0.031 0.343 0.101 0.343 0.282v1.266c0.471-0.797 1.412-1.551 2.395-1.551 0.143 0 0.307 0.102 0.307 0.265zM76.855 15.439c-0.123-1.409-1.208-2.695-2.702-2.695s-2.558 1.286-2.702 2.695h5.404zM77.469 15.719c-0.001 0.078-0.033 0.152-0.088 0.207s-0.13 0.085-0.208 0.085h-5.721c0.143 1.409 1.208 2.695 2.702 2.695 1.023 0 1.781-0.388 2.354-1.205 0.084-0.111 0.206-0.184 0.365-0.117 0.042 0.018 0.079 0.046 0.107 0.082s0.047 0.078 0.055 0.123c0.013 0.068 0 0.138-0.036 0.197-0.573 1-1.719 1.49-2.845 1.49-1.924 0-3.295-1.715-3.295-3.553 0-1.837 1.371-3.552 3.295-3.552 1.922 0 3.313 1.711 3.317 3.546h-0.001zM86.7 12.653v6.237c0 0.164-0.143 0.285-0.286 0.285-0.038 0.001-0.076-0.006-0.111-0.020s-0.067-0.035-0.094-0.062c-0.027-0.027-0.047-0.059-0.062-0.094s-0.021-0.073-0.020-0.11v-1.184c-0.471 0.939-1.31 1.613-2.375 1.613-1.699 0-2.64-1.47-2.64-3.022v-3.654c0-0.143 0.122-0.287 0.286-0.287s0.287 0.143 0.287 0.286v3.654c0 1.225 0.696 2.45 2.067 2.45 1.924 0 2.375-1.797 2.375-3.778v-2.327c0.001-0.044 0.011-0.088 0.031-0.128s0.050-0.074 0.085-0.1 0.077-0.044 0.121-0.052c0.044-0.008 0.089-0.006 0.132 0.006 0.060 0.019 0.113 0.057 0.149 0.109s0.056 0.113 0.055 0.176zM101.172 15.194v3.654c0 0.164-0.143 0.286-0.286 0.286-0.038 0.001-0.076-0.006-0.111-0.020s-0.067-0.035-0.094-0.062c-0.027-0.027-0.047-0.059-0.062-0.094s-0.021-0.073-0.020-0.11v-3.654c0-1.225-0.696-2.429-2.068-2.429-1.719 0-2.374 1.837-2.374 3.266v2.817c0 0.163-0.143 0.285-0.287 0.285-0.038 0.001-0.076-0.006-0.111-0.020s-0.067-0.035-0.094-0.062c-0.027-0.027-0.048-0.059-0.062-0.094s-0.021-0.073-0.020-0.11v-3.654c0-1.225-0.696-2.429-2.068-2.429-1.74 0-2.456 1.368-2.395 3.185 0 0.041 0.021 0.123 0 0.143v2.75c0 0.138-0.094 0.265-0.231 0.288-0.191 0.031-0.342-0.101-0.342-0.281v-6.24c0-0.138 0.094-0.267 0.231-0.289 0.19-0.031 0.342 0.101 0.342 0.282v1.041c0.492-0.877 1.372-1.449 2.396-1.449 1.166 0 2.067 0.735 2.435 1.817 0.471-1.062 1.391-1.817 2.579-1.817 1.678 0 2.641 1.45 2.641 3.002z"></path>
<path fill="#fff" style="fill: var(--color2, #fff)" opacity="0.5" d="M0.509 16.327l9.559 5.636v-21.456l-9.559 15.82z"></path>
<path fill="#fff" style="fill: var(--color2, #fff)" opacity="0.5" d="M10.069 0.508v21.456l9.559-5.636-9.559-15.82z"></path>
<path fill="#fff" style="fill: var(--color2, #fff)" opacity="0.5" d="M10.069 11.994l-9.559 4.333 9.559 5.636 9.559-5.635-9.559-4.334z"></path>
<path fill="#fff" style="fill: var(--color2, #fff)" opacity="0.5" d="M10.069 11.994l-9.559 4.333 9.559 5.636 0.001-9.969z"></path>
<path fill="#fff" style="fill: var(--color2, #fff)" opacity="0.5" d="M0.509 18.135l9.559 13.436v-7.803l-9.559-5.633z"></path>
<path fill="#fff" style="fill: var(--color2, #fff)" opacity="0.5" d="M10.069 23.768v7.803l9.565-13.436-9.565 5.633z"></path>
</symbol>
<symbol id="icon-binance-logo" viewBox="0 0 158 32">
<path fill="#fff" style="fill: var(--color2, #fff)" opacity="0.5" d="M9.757 13.213l6.117-6.106 6.12 6.109 3.559-3.553-9.679-9.663-9.676 9.66 3.559 3.553z"></path>
<path fill="#fff" style="fill: var(--color2, #fff)" opacity="0.5" d="M7.243 15.722l-3.559-3.553-3.559 3.553 3.559 3.553 3.559-3.553z"></path>
<path fill="#fff" style="fill: var(--color2, #fff)" opacity="0.5" d="M9.757 18.231l6.117 6.106 6.12-6.109 3.561 3.551-0.002 0.002-9.679 9.663-9.681-9.665 3.564-3.548z"></path>
<path fill="#fff" style="fill: var(--color2, #fff)" opacity="0.5" d="M28.062 19.276l3.559-3.553-3.559-3.553-3.559 3.553 3.559 3.553z"></path>
<path fill="#fff" style="fill: var(--color2, #fff)" opacity="0.5" d="M19.483 15.72h0.001l-3.611-3.606-3.613 3.607 0.005 0.005 3.608 3.602 3.613-3.608-0.003-0.002z"></path>
<path fill="#fff" style="fill: var(--color2, #fff)" opacity="0.5" d="M37.17 7.619h7.741c1.921 0 3.374 0.492 4.359 1.477 0.762 0.762 1.143 1.707 1.143 2.835v0.048c0 0.476-0.059 0.897-0.178 1.262s-0.277 0.695-0.474 0.988c-0.197 0.294-0.427 0.552-0.687 0.774s-0.541 0.413-0.842 0.572c0.966 0.366 1.726 0.862 2.28 1.489s0.831 1.497 0.831 2.608v0.047c0 0.762-0.147 1.429-0.441 2.001s-0.715 1.048-1.263 1.429c-0.548 0.381-1.207 0.667-1.977 0.858s-1.624 0.286-2.56 0.286h-7.932v-16.674zM44.137 14.36c0.811 0 1.456-0.139 1.933-0.417s0.716-0.727 0.716-1.346v-0.048c0-0.556-0.207-0.98-0.62-1.274s-1.010-0.441-1.789-0.441h-3.627v3.525h3.388zM45.115 21.078c0.811 0 1.447-0.146 1.909-0.441s0.692-0.751 0.692-1.37v-0.047c0-0.556-0.215-0.996-0.644-1.322s-1.121-0.488-2.076-0.488h-4.247v3.668l4.367-0z"></path>
<path fill="#fff" style="fill: var(--color2, #fff)" opacity="0.5" d="M55.953 7.619h3.675v16.675h-3.675v-16.675z"></path>
<path fill="#fff" style="fill: var(--color2, #fff)" opacity="0.5" d="M65.193 7.619h3.387l7.826 10.267v-10.267h3.627v16.675h-3.125l-8.089-10.6v10.6h-3.626v-16.675z"></path>
<path fill="#fff" style="fill: var(--color2, #fff)" opacity="0.5" d="M91.158 7.5h3.388l7.159 16.794h-3.842l-1.527-3.74h-7.063l-1.527 3.74h-3.746l7.159-16.794zM95.023 17.314l-2.219-5.407-2.219 5.407h4.438z"></path>
<path fill="#fff" style="fill: var(--color2, #fff)" opacity="0.5" d="M105.671 7.619h3.388l7.826 10.267v-10.267h3.627v16.675h-3.125l-8.088-10.6v10.6h-3.627v-16.675z"></path>
<path fill="#fff" style="fill: var(--color2, #fff)" opacity="0.5" d="M133.736 24.58c-1.225 0-2.362-0.223-3.412-0.667s-1.957-1.052-2.72-1.822c-0.764-0.77-1.361-1.679-1.79-2.727s-0.644-2.168-0.644-3.359v-0.047c0-1.191 0.215-2.306 0.644-3.347s1.026-1.953 1.79-2.739c0.763-0.786 1.678-1.406 2.744-1.858s2.243-0.679 3.532-0.679c0.779 0 1.49 0.064 2.135 0.191s1.228 0.302 1.754 0.524c0.525 0.223 1.010 0.492 1.456 0.81 0.444 0.318 0.858 0.667 1.24 1.048l-2.338 2.692c-0.653-0.587-1.317-1.048-1.993-1.382s-1.436-0.5-2.279-0.5c-0.7 0-1.348 0.135-1.944 0.405s-1.11 0.643-1.54 1.119c-0.429 0.476-0.763 1.028-1.002 1.656s-0.357 1.298-0.357 2.013v0.047c0 0.715 0.119 1.39 0.357 2.025s0.568 1.191 0.99 1.667c0.421 0.476 0.93 0.854 1.527 1.132s1.253 0.417 1.969 0.417c0.955 0 1.761-0.175 2.421-0.524s1.317-0.826 1.969-1.429l2.338 2.358c-0.43 0.461-0.875 0.874-1.336 1.239s-0.966 0.679-1.515 0.941c-0.548 0.262-1.15 0.461-1.801 0.595-0.653 0.135-1.384 0.203-2.195 0.203z"></path>
<path fill="#fff" style="fill: var(--color2, #fff)" opacity="0.5" d="M144.908 7.619h12.574v3.264h-8.948v3.383h7.874v3.263h-7.874v3.502h9.067v3.263h-12.694v-16.675z"></path>
</symbol>
<symbol id="icon-button" viewBox="0 0 52 32">
<path d="M39.806 12.126c0-0.138-0.112-0.249-0.249-0.249h-23.12c-0.037 0-0.073 0.008-0.107 0.024l-4.532 2.148c-0.087 0.041-0.143 0.129-0.143 0.225v4.579c0 0.138 0.112 0.249 0.249 0.249h23.962c0.038 0 0.075-0.009 0.109-0.025l3.69-1.803c0.086-0.042 0.14-0.129 0.14-0.224v-4.924z"></path>
</symbol>
<symbol id="icon-right" viewBox="0 0 100 32">
<path fill="#fff" style="fill: var(--color2, #fff)" d="M81.642 26.543l10.404-10.404-10.404-10.404 2.081-4.162 14.566 14.566-14.566 14.566-2.081-4.162z"></path>
<path fill="none" stroke="#fff" style="stroke: var(--color2, #fff)" stroke-linejoin="miter" stroke-linecap="butt" stroke-miterlimit="4" stroke-width="4.1617" d="M92.046 16.139h-91.558"></path>
</symbol>
<symbol id="icon-burger-menu" viewBox="0 0 34 32">
<path fill="#fff" style="fill: var(--color2, #fff)" d="M33.089 3.585c0-0.567-0.218-1.111-0.606-1.512s-0.914-0.626-1.462-0.626h-28.952c-0.548 0-1.074 0.225-1.462 0.626s-0.606 0.945-0.606 1.512c0 0.567 0.218 1.111 0.606 1.512s0.914 0.626 1.462 0.626h28.952c0.548 0 1.074-0.225 1.462-0.626s0.606-0.945 0.606-1.512z"></path>
<path fill="#fff" style="fill: var(--color2, #fff)" d="M33.089 29.243c0-0.567-0.218-1.111-0.606-1.512s-0.914-0.626-1.462-0.626h-28.952c-0.548 0-1.074 0.225-1.462 0.626s-0.606 0.945-0.606 1.512 0.218 1.111 0.606 1.512c0.388 0.401 0.914 0.626 1.462 0.626h28.952c0.548 0 1.074-0.225 1.462-0.626s0.606-0.945 0.606-1.512z"></path>
<path fill="#fff" style="fill: var(--color2, #fff)" d="M31.020 14.275c0.548 0 1.074 0.225 1.462 0.626s0.606 0.945 0.606 1.512c0 0.567-0.218 1.111-0.606 1.512s-0.914 0.626-1.462 0.626h-16.544c-0.548 0-1.074-0.225-1.462-0.626s-0.606-0.945-0.606-1.512c0-0.567 0.218-1.111 0.606-1.512s0.914-0.626 1.462-0.626h16.544z"></path>
</symbol>
<symbol id="icon-logo-mob" viewBox="0 0 149 32">
<path fill="#000" style="fill: var(--color3, #000)" d="M8.894 23.603l-8.894-5.427 8.888 12.955 8.898-12.955-8.893 5.427zM9.026 1.174l-8.89 15.256 8.89 5.436 8.894-5.43-8.894-15.261z"></path>
<path fill="#fff" style="fill: var(--color2, #fff)" opacity="0.6" d="M26.85 23.886c-0.545 0-1.047-0.136-1.505-0.409-0.444-0.272-0.803-0.631-1.075-1.075-0.272-0.459-0.409-0.961-0.409-1.505v-9.505c0-0.545 0.136-1.039 0.409-1.484 0.272-0.459 0.631-0.824 1.075-1.097 0.459-0.272 0.961-0.409 1.505-0.409h9.505c0.545 0 1.039 0.136 1.484 0.409 0.459 0.272 0.824 0.638 1.097 1.097 0.272 0.444 0.409 0.939 0.409 1.484v9.505c0 0.545-0.136 1.047-0.409 1.505-0.272 0.444-0.638 0.803-1.097 1.075-0.444 0.272-0.939 0.409-1.484 0.409h-9.505zM26.958 21.026h9.247c0.072 0 0.136-0.021 0.194-0.065 0.057-0.057 0.086-0.122 0.086-0.193v-9.247c0-0.072-0.029-0.129-0.086-0.172-0.057-0.057-0.122-0.086-0.194-0.086h-9.247c-0.072 0-0.136 0.029-0.193 0.086-0.043 0.043-0.065 0.1-0.065 0.172v9.247c0 0.072 0.021 0.136 0.065 0.193 0.057 0.043 0.122 0.065 0.193 0.065zM44.278 23.886c-0.545 0-1.039-0.136-1.484-0.409s-0.803-0.631-1.075-1.075c-0.272-0.444-0.409-0.939-0.409-1.484v-6.537c0-0.545 0.136-1.039 0.409-1.484s0.631-0.803 1.075-1.075 0.939-0.409 1.484-0.409h9.677v2.817h-9.569c-0.072 0-0.136 0.029-0.194 0.086-0.043 0.043-0.064 0.1-0.064 0.172v6.322c0 0.072 0.021 0.136 0.064 0.194 0.057 0.043 0.122 0.064 0.194 0.064h9.591v2.817h-9.698zM58.684 23.886c-0.545 0-1.039-0.136-1.484-0.409s-0.803-0.631-1.075-1.075c-0.272-0.444-0.409-0.939-0.409-1.484v-6.537c0-0.545 0.136-1.039 0.409-1.484s0.631-0.803 1.075-1.075 0.939-0.409 1.484-0.409h6.731c0.545 0 1.039 0.136 1.484 0.409 0.459 0.272 0.817 0.631 1.075 1.075 0.272 0.444 0.409 0.939 0.409 1.484v4.688h-9.849v1.742c0 0.072 0.021 0.136 0.064 0.194 0.057 0.043 0.122 0.064 0.194 0.064h9.591v2.817h-9.698zM58.533 16.532h7.032v-2.043c0-0.072-0.029-0.129-0.086-0.172-0.043-0.057-0.1-0.086-0.172-0.086h-6.516c-0.072 0-0.136 0.029-0.194 0.086-0.043 0.043-0.064 0.1-0.064 0.172v2.043zM73.594 23.886c-0.545 0-1.046-0.136-1.505-0.409-0.444-0.272-0.803-0.631-1.075-1.075-0.258-0.444-0.387-0.939-0.387-1.484v-4.688h9.849v-1.742c0-0.072-0.029-0.129-0.086-0.172-0.043-0.057-0.1-0.086-0.172-0.086h-9.591v-2.817h9.698c0.545 0 1.039 0.136 1.484 0.409 0.459 0.272 0.817 0.631 1.075 1.075 0.272 0.444 0.409 0.939 0.409 1.484v9.505h-9.698zM73.702 21.069h6.774v-2.301h-7.032v2.043c0 0.072 0.022 0.136 0.065 0.194 0.057 0.043 0.122 0.064 0.194 0.064zM85.37 23.886v-12.472h9.698c0.545 0 1.039 0.136 1.484 0.409 0.459 0.272 0.817 0.631 1.075 1.075 0.272 0.444 0.409 0.939 0.409 1.484v9.505h-2.817v-9.397c0-0.072-0.029-0.129-0.086-0.172-0.043-0.057-0.1-0.086-0.172-0.086h-6.516c-0.072 0-0.136 0.029-0.193 0.086-0.043 0.043-0.065 0.1-0.065 0.172v9.397h-2.817z"></path>
<path fill="#fff" style="fill: var(--color2, #fff)" d="M100.385 23.886v-15.483h3.118l9.505 11.311v-11.311h2.86v15.483h-3.118l-9.526-11.333v11.333h-2.838zM118.32 23.886v-15.483h14.257v2.86h-11.397v3.441h9.161v2.881h-9.161v6.301h-2.86zM139.575 23.886v-12.623h-6.322v-2.86h15.483v2.86h-6.301v12.623h-2.86z"></path>
</symbol>
<symbol id="icon-profile" viewBox="0 0 32 32">
<path fill="#fff" style="fill: var(--color2, #fff)" d="M15.89 29.456c-7.645 0-13.842-6.197-13.842-13.842s6.197-13.842 13.842-13.842c7.645 0 13.842 6.197 13.842 13.842s-6.198 13.842-13.842 13.842zM15.89 30.994c8.495 0 15.38-6.886 15.38-15.38s-6.886-15.38-15.38-15.38c-8.495 0-15.38 6.886-15.38 15.38s6.886 15.38 15.38 15.38z"></path>
<path fill="#fff" style="fill: var(--color2, #fff)" d="M6.662 24.558c0-0.794 0.594-1.466 1.384-1.553 5.933-0.657 9.782-0.598 15.702 0.015 0.296 0.031 0.576 0.147 0.806 0.335s0.401 0.438 0.492 0.722c0.090 0.283 0.096 0.587 0.017 0.873s-0.24 0.544-0.463 0.74c-6.987 6.090-10.979 6.006-17.446 0.006-0.315-0.292-0.492-0.707-0.492-1.137v-0.001z"></path>
<path fill="#fff" style="fill: var(--color2, #fff)" d="M23.668 23.784c-5.873-0.608-9.666-0.665-15.539-0.015-0.395 0.044-0.699 0.381-0.699 0.79 0 0.22 0.092 0.428 0.246 0.573 3.205 2.973 5.634 4.317 8.008 4.325 2.382 0.009 4.942-1.324 8.41-4.347 0.11-0.098 0.189-0.226 0.228-0.368s0.035-0.293-0.010-0.433c-0.045-0.14-0.13-0.265-0.244-0.358s-0.253-0.151-0.4-0.166v-0.001zM7.961 22.24c5.995-0.664 9.9-0.604 15.866 0.014 0.445 0.046 0.866 0.221 1.213 0.504s0.604 0.66 0.739 1.086c0.136 0.426 0.144 0.883 0.024 1.313s-0.362 0.817-0.699 1.112c-3.518 3.067-6.448 4.737-9.426 4.726-2.986-0.011-5.787-1.709-9.048-4.736-0.234-0.217-0.42-0.481-0.547-0.773s-0.193-0.608-0.192-0.928c-0.001-0.573 0.209-1.127 0.591-1.555s0.908-0.7 1.478-0.764v0.001z"></path>
<path fill="#fff" style="fill: var(--color2, #fff)" d="M22.042 12.538c0 1.632-0.648 3.196-1.802 4.35s-2.718 1.802-4.35 1.802c-1.632 0-3.196-0.648-4.35-1.802s-1.802-2.719-1.802-4.35c0-1.632 0.648-3.196 1.802-4.35s2.719-1.802 4.35-1.802c1.632 0 3.197 0.648 4.35 1.802s1.802 2.719 1.802 4.35z"></path>
<path fill="#fff" style="fill: var(--color2, #fff)" d="M15.89 17.152c-1.224 0-2.397-0.486-3.263-1.351s-1.351-2.039-1.351-3.263 0.486-2.397 1.351-3.263c0.865-0.865 2.039-1.351 3.263-1.351s2.397 0.486 3.263 1.351c0.865 0.865 1.351 2.039 1.351 3.263s-0.486 2.397-1.351 3.263c-0.865 0.865-2.039 1.352-3.263 1.352zM15.89 18.69c1.632 0 3.197-0.648 4.35-1.802s1.802-2.719 1.802-4.35-0.648-3.196-1.802-4.35c-1.154-1.154-2.718-1.802-4.35-1.802s-3.196 0.648-4.35 1.802-1.802 2.719-1.802 4.35c0 1.632 0.648 3.196 1.802 4.35s2.719 1.802 4.35 1.802z"></path>
</symbol>
<symbol id="icon-basket" viewBox="0 0 32 32">
<path fill="none" stroke="#fff" style="stroke: var(--color2, #fff)" stroke-linejoin="round" stroke-linecap="butt" stroke-miterlimit="4" stroke-width="2.83" d="M6.029 7.981h21.139c0.428 0 0.852 0.090 1.243 0.264s0.742 0.428 1.030 0.745c0.287 0.318 0.505 0.692 0.639 1.099s0.181 0.837 0.138 1.263l-0.92 9.197c-0.076 0.756-0.43 1.458-0.993 1.968s-1.297 0.793-2.057 0.793h-14.639c-0.709 0-1.396-0.245-1.945-0.695s-0.924-1.075-1.063-1.77l-2.572-12.864z"></path>
<path fill="none" stroke="#fff" style="stroke: var(--color2, #fff)" stroke-linejoin="round" stroke-linecap="round" stroke-miterlimit="4" stroke-width="2.83" d="M6.029 7.98l-1.242-4.971c-0.083-0.331-0.274-0.626-0.544-0.836s-0.601-0.324-0.943-0.324h-1.87"></path>
<path fill="none" stroke="#fff" style="stroke: var(--color2, #fff)" stroke-linejoin="round" stroke-linecap="round" stroke-miterlimit="4" stroke-width="2.83" d="M10.628 29.441h3.065"></path>
<path fill="none" stroke="#fff" style="stroke: var(--color2, #fff)" stroke-linejoin="round" stroke-linecap="round" stroke-miterlimit="4" stroke-width="2.83" d="M22.891 29.441h3.065"></path>
</symbol>
<symbol id="icon-logo" viewBox="0 0 143 32">
<path fill="#000" style="fill: var(--color3, #000)" d="M9.698 22.206l-8.778-5.18 8.773 12.367 8.783-12.367-8.777 5.18zM9.829 0.795l-8.775 14.564 8.775 5.189 8.778-5.184-8.778-14.569z"></path>
<path fill="#fff" style="fill: var(--color2, #fff)" opacity="0.6" d="M21.021 25.667c-0.538 0-1.033-0.134-1.486-0.403-0.439-0.269-0.792-0.622-1.061-1.061-0.269-0.453-0.403-0.948-0.403-1.486v-9.381c0-0.538 0.134-1.026 0.403-1.465 0.269-0.453 0.623-0.814 1.061-1.082 0.453-0.269 0.948-0.403 1.486-0.403h9.381c0.538 0 1.026 0.134 1.464 0.403 0.453 0.269 0.814 0.63 1.083 1.082 0.269 0.439 0.403 0.927 0.403 1.465v9.381c0 0.538-0.134 1.033-0.403 1.486-0.269 0.439-0.63 0.792-1.083 1.061-0.439 0.269-0.927 0.403-1.464 0.403h-9.381zM21.127 22.844h9.127c0.071 0 0.134-0.021 0.191-0.064 0.057-0.057 0.085-0.12 0.085-0.191v-9.127c0-0.071-0.028-0.127-0.085-0.17-0.057-0.057-0.12-0.085-0.191-0.085h-9.127c-0.071 0-0.134 0.028-0.191 0.085-0.042 0.042-0.064 0.099-0.064 0.17v9.127c0 0.071 0.021 0.134 0.064 0.191 0.057 0.042 0.12 0.064 0.191 0.064zM38.223 25.667c-0.538 0-1.026-0.134-1.464-0.403s-0.792-0.622-1.061-1.061c-0.269-0.439-0.403-0.927-0.403-1.465v-6.452c0-0.538 0.134-1.026 0.403-1.465s0.623-0.792 1.061-1.061c0.439-0.269 0.927-0.403 1.464-0.403h9.551v2.78h-9.445c-0.071 0-0.134 0.028-0.191 0.085-0.042 0.042-0.064 0.099-0.064 0.17v6.24c0 0.071 0.021 0.134 0.064 0.191 0.057 0.042 0.12 0.064 0.191 0.064h9.466v2.78h-9.572zM52.442 25.667c-0.538 0-1.026-0.134-1.465-0.403s-0.792-0.622-1.061-1.061c-0.269-0.439-0.403-0.927-0.403-1.465v-6.452c0-0.538 0.134-1.026 0.403-1.465s0.623-0.792 1.061-1.061c0.439-0.269 0.927-0.403 1.465-0.403h6.643c0.538 0 1.026 0.134 1.465 0.403 0.453 0.269 0.806 0.623 1.061 1.061 0.269 0.439 0.403 0.927 0.403 1.465v4.627h-9.721v1.719c0 0.071 0.021 0.134 0.064 0.191 0.057 0.042 0.12 0.064 0.191 0.064h9.466v2.78h-9.572zM52.293 18.408h6.941v-2.016c0-0.071-0.028-0.127-0.085-0.17-0.042-0.057-0.099-0.085-0.17-0.085h-6.431c-0.071 0-0.134 0.028-0.191 0.085-0.042 0.042-0.064 0.099-0.064 0.17v2.016zM67.159 25.667c-0.538 0-1.033-0.134-1.486-0.403-0.439-0.269-0.792-0.622-1.061-1.061-0.255-0.439-0.382-0.927-0.382-1.465v-4.627h9.721v-1.719c0-0.071-0.028-0.127-0.085-0.17-0.042-0.057-0.099-0.085-0.17-0.085h-9.466v-2.78h9.572c0.538 0 1.026 0.134 1.465 0.403 0.453 0.269 0.806 0.623 1.061 1.061 0.269 0.439 0.403 0.927 0.403 1.465v9.381h-9.572zM67.265 22.886h6.686v-2.271h-6.94v2.016c0 0.071 0.021 0.134 0.064 0.191 0.057 0.042 0.12 0.064 0.191 0.064zM78.781 25.667v-12.31h9.572c0.538 0 1.026 0.134 1.465 0.403 0.453 0.269 0.806 0.623 1.061 1.061 0.269 0.439 0.403 0.927 0.403 1.465v9.381h-2.78v-9.275c0-0.071-0.028-0.127-0.085-0.17-0.042-0.057-0.099-0.085-0.17-0.085h-6.431c-0.071 0-0.135 0.028-0.191 0.085-0.042 0.042-0.064 0.099-0.064 0.17v9.275h-2.78z"></path>
<path fill="#fff" style="fill: var(--color2, #fff)" d="M93.602 25.667v-15.282h3.078l9.381 11.164v-11.164h2.823v15.282h-3.077l-9.403-11.185v11.185h-2.802zM111.305 25.667v-15.282h14.073v2.823h-11.249v3.396h9.041v2.844h-9.041v6.219h-2.823zM132.284 25.667v-12.459h-6.24v-2.823h15.282v2.823h-6.22v12.459h-2.822z"></path>
</symbol>
</defs>
</svg>
